#N canvas 782 194 1920 976 12;
#X msg 124 34 listen 7311;
#X obj 125 84 netreceive -u -b;
#X obj 121 132 oscparse;
#X obj 361 169 print;
#X obj 120 183 list trim;
#X obj 242 518 makenote;
#X obj 243 566 noteout;
#X obj 910 383 pgmout;
#X msg 297 473 127;
#X msg 352 472 300;
#X floatatom 263 306 5 0 0 0 - - - 0;
#X obj 45 246 route note0;
#X obj 183 251 route note1;
#X obj 314 253 route note2;
#X obj 444 251 route note3;
#X obj 565 251 route instrument0;
#X obj 749 250 route instrument1;
#X obj 927 249 route instrument2;
#X obj 1104 248 route instrument3;
#X msg 627 308 0;
#X msg 790 308 79;
#X msg 970 309 119;
#X msg 1143 311 116;
#X connect 0 0 1 0;
#X connect 0 0 8 0;
#X connect 0 0 9 0;
#X connect 1 0 2 0;
#X connect 2 0 4 0;
#X connect 2 0 3 0;
#X connect 4 0 11 0;
#X connect 4 0 12 0;
#X connect 4 0 13 0;
#X connect 4 0 14 0;
#X connect 4 0 15 0;
#X connect 4 0 16 0;
#X connect 4 0 17 0;
#X connect 4 0 18 0;
#X connect 5 0 6 0;
#X connect 5 1 6 1;
#X connect 8 0 5 1;
#X connect 9 0 5 2;
#X connect 10 0 5 0;
#X connect 11 0 10 0;
#X connect 12 0 10 0;
#X connect 13 0 10 0;
#X connect 14 0 10 0;
#X connect 15 0 19 0;
#X connect 16 0 20 0;
#X connect 17 0 21 0;
#X connect 18 0 22 0;
#X connect 19 0 7 0;
#X connect 20 0 7 0;
#X connect 21 0 7 0;
#X connect 22 0 7 0;
